<svg width="20" height="20" viewBox="0 0 20 20" fill="none" xmlns="http://www.w3.org/2000/svg">
<path d="M10 9.5298C11.2155 9.5298 12.3813 9.02778 13.2408 8.13419C14.1003 7.2406 14.5832 6.02863 14.5832 4.7649C14.5832 3.50117 14.1003 2.2892 13.2408 1.39561C12.3813 0.502015 11.2155 0 10 0C8.78446 0 7.61871 0.502015 6.7592 1.39561C5.89969 2.2892 5.41682 3.50117 5.41682 4.7649C5.41682 6.02863 5.89969 7.2406 6.7592 8.13419C7.61871 9.02778 8.78446 9.5298 10 9.5298ZM10 11.6233C3.90636 11.6233 0 15.1193 0 16.8215V20H20V16.8215C20 14.763 16.3018 11.6233 10 11.6233Z" fill="#00BCD4"/>
</svg>
