<svg width="26" height="20" viewBox="0 0 26 20" fill="none" xmlns="http://www.w3.org/2000/svg">
<path d="M1.3 20H24.7C25.0448 20 25.3754 19.8946 25.6192 19.7071C25.863 19.5196 26 19.2652 26 19V4C26 3.73478 25.863 3.48043 25.6192 3.29289C25.3754 3.10536 25.0448 3 24.7 3H19.5V1C19.5 0.734784 19.363 0.48043 19.1192 0.292893C18.8754 0.105357 18.5448 0 18.2 0C17.8552 0 17.5246 0.105357 17.2808 0.292893C17.037 0.48043 16.9 0.734784 16.9 1V3H9.1V1C9.1 0.734784 8.96304 0.48043 8.71924 0.292893C8.47544 0.105357 8.14478 0 7.8 0C7.45522 0 7.12456 0.105357 6.88076 0.292893C6.63696 0.48043 6.5 0.734784 6.5 1V3H1.3C0.955219 3 0.624558 3.10536 0.380761 3.29289C0.136964 3.48043 0 3.73478 0 4V19C0 19.2652 0.136964 19.5196 0.380761 19.7071C0.624558 19.8946 0.955219 20 1.3 20ZM2.6 5H23.4V8H2.6V5ZM2.6 10H23.4V18H2.6V10Z" fill="#00BCD4"/>
</svg>
