<svg width="144" height="31" viewBox="0 0 144 31" fill="none" xmlns="http://www.w3.org/2000/svg">
<path d="M9.63832 6.09091H13.59V19.2756C13.59 20.4943 13.3161 21.553 12.7683 22.4517C12.2266 23.3504 11.4726 24.0429 10.5062 24.5291C9.53983 25.0154 8.41649 25.2585 7.13619 25.2585C5.99746 25.2585 4.96336 25.0585 4.03391 24.6584C3.11062 24.2521 2.37814 23.6366 1.83647 22.8118C1.2948 21.9808 1.02705 20.9375 1.0332 19.6818H5.01261C5.02492 20.1804 5.12648 20.6082 5.31729 20.9652C5.51426 21.3161 5.78202 21.5869 6.12056 21.7777C6.46526 21.9624 6.87151 22.0547 7.33931 22.0547C7.83174 22.0547 8.24722 21.95 8.58576 21.7408C8.93046 21.5253 9.19206 21.2114 9.37056 20.799C9.54906 20.3866 9.63832 19.8788 9.63832 19.2756V6.09091ZM16.8954 25V6.09091H24.3556C25.7837 6.09091 27.0024 6.34635 28.0119 6.85724C29.0275 7.36198 29.8 8.07907 30.3294 9.00852C30.8649 9.93182 31.1326 11.0182 31.1326 12.2678C31.1326 13.5234 30.8618 14.6037 30.3201 15.5085C29.7785 16.4072 28.9937 17.0966 27.9657 17.5767C26.944 18.0568 25.7067 18.2969 24.2541 18.2969H19.2591V15.0838H23.6078C24.371 15.0838 25.005 14.9792 25.5098 14.7699C26.0145 14.5606 26.39 14.2467 26.6362 13.8281C26.8886 13.4096 27.0147 12.8894 27.0147 12.2678C27.0147 11.6399 26.8886 11.1106 26.6362 10.6797C26.39 10.2488 26.0114 9.92258 25.5005 9.70099C24.9958 9.47325 24.3587 9.35938 23.5893 9.35938H20.8933V25H16.8954ZM27.1071 16.3949L31.8066 25H27.3933L22.7953 16.3949H27.1071ZM40.1186 25.277C38.6598 25.277 37.4041 24.9815 36.3516 24.3906C35.3052 23.7936 34.4988 22.9503 33.9325 21.8608C33.3662 20.7652 33.0831 19.4695 33.0831 17.9737C33.0831 16.5149 33.3662 15.2346 33.9325 14.1328C34.4988 13.031 35.2959 12.1723 36.3239 11.5568C37.358 10.9413 38.5705 10.6335 39.9616 10.6335C40.8973 10.6335 41.7682 10.7843 42.5746 11.0859C43.3871 11.3814 44.0949 11.8277 44.6982 12.4247C45.3075 13.0218 45.7815 13.7727 46.12 14.6776C46.4586 15.5762 46.6278 16.6288 46.6278 17.8352V18.9155H34.6527V16.478H42.9254C42.9254 15.9117 42.8023 15.41 42.5561 14.973C42.3099 14.536 41.9683 14.1944 41.5312 13.9482C41.1004 13.6958 40.5987 13.5696 40.0263 13.5696C39.4292 13.5696 38.8999 13.7081 38.4382 13.9851C37.9827 14.2559 37.6257 14.6222 37.3672 15.0838C37.1087 15.5393 36.9763 16.0471 36.9702 16.6072V18.9247C36.9702 19.6264 37.0994 20.2327 37.358 20.7436C37.6226 21.2545 37.995 21.6484 38.4751 21.9254C38.9553 22.2024 39.5246 22.3409 40.1832 22.3409C40.6203 22.3409 41.0204 22.2794 41.3835 22.1562C41.7467 22.0331 42.0575 21.8485 42.3161 21.6023C42.5746 21.3561 42.7715 21.0545 42.907 20.6974L46.5447 20.9375C46.3601 21.8116 45.9815 22.5748 45.4091 23.2273C44.8428 23.8736 44.1103 24.3783 43.2116 24.7415C42.3191 25.0985 41.2881 25.277 40.1186 25.277ZM49.1946 30.3182V10.8182H53.0724V13.2003H53.2479C53.4202 12.8187 53.6695 12.4309 53.9957 12.0369C54.3281 11.6368 54.759 11.3045 55.2884 11.0398C55.8239 10.7689 56.4886 10.6335 57.2827 10.6335C58.3168 10.6335 59.2708 10.9044 60.1449 11.446C61.0189 11.9815 61.7176 12.791 62.2408 13.8743C62.764 14.9515 63.0256 16.3026 63.0256 17.9276C63.0256 19.5095 62.7701 20.8452 62.2592 21.9347C61.7545 23.018 61.0651 23.8397 60.1911 24.3999C59.3232 24.9538 58.3506 25.2308 57.2734 25.2308C56.5102 25.2308 55.8608 25.1046 55.3253 24.8523C54.7959 24.5999 54.362 24.2829 54.0234 23.9013C53.6849 23.5135 53.4264 23.1226 53.2479 22.7287H53.1278V30.3182H49.1946ZM53.0447 17.9091C53.0447 18.7524 53.1617 19.4879 53.3956 20.1158C53.6295 20.7436 53.968 21.233 54.4112 21.5838C54.8544 21.9285 55.393 22.1009 56.027 22.1009C56.6671 22.1009 57.2088 21.9254 57.652 21.5746C58.0952 21.2176 58.4306 20.7251 58.6584 20.0973C58.8923 19.4633 59.0092 18.7339 59.0092 17.9091C59.0092 17.0904 58.8954 16.3703 58.6676 15.7486C58.4399 15.1269 58.1044 14.6406 57.6612 14.2898C57.218 13.9389 56.6733 13.7635 56.027 13.7635C55.3868 13.7635 54.8452 13.9328 54.402 14.2713C53.965 14.6098 53.6295 15.09 53.3956 15.7116C53.1617 16.3333 53.0447 17.0658 53.0447 17.9091ZM72.0554 25.277C70.6212 25.277 69.3809 24.9723 68.3345 24.3629C67.2943 23.7474 66.491 22.8918 65.9247 21.7962C65.3584 20.6944 65.0753 19.4171 65.0753 17.9645C65.0753 16.4995 65.3584 15.2192 65.9247 14.1236C66.491 13.0218 67.2943 12.1662 68.3345 11.5568C69.3809 10.9413 70.6212 10.6335 72.0554 10.6335C73.4896 10.6335 74.7268 10.9413 75.767 11.5568C76.8134 12.1662 77.6198 13.0218 78.1861 14.1236C78.7524 15.2192 79.0355 16.4995 79.0355 17.9645C79.0355 19.4171 78.7524 20.6944 78.1861 21.7962C77.6198 22.8918 76.8134 23.7474 75.767 24.3629C74.7268 24.9723 73.4896 25.277 72.0554 25.277ZM72.0739 22.2301C72.7263 22.2301 73.2711 22.0455 73.7081 21.6761C74.1451 21.3007 74.4744 20.7898 74.696 20.1435C74.9238 19.4972 75.0376 18.7616 75.0376 17.9368C75.0376 17.112 74.9238 16.3764 74.696 15.7301C74.4744 15.0838 74.1451 14.5729 73.7081 14.1974C73.2711 13.822 72.7263 13.6342 72.0739 13.6342C71.4152 13.6342 70.8613 13.822 70.4119 14.1974C69.9688 14.5729 69.6333 15.0838 69.4055 15.7301C69.1839 16.3764 69.0732 17.112 69.0732 17.9368C69.0732 18.7616 69.1839 19.4972 69.4055 20.1435C69.6333 20.7898 69.9688 21.3007 70.4119 21.6761C70.8613 22.0455 71.4152 22.2301 72.0739 22.2301ZM91.9247 11.5291C91.8509 10.7843 91.5339 10.2057 90.9737 9.79332C90.4136 9.38092 89.6534 9.17471 88.6932 9.17471C88.0407 9.17471 87.4898 9.26704 87.0405 9.4517C86.5911 9.63021 86.2464 9.8795 86.0064 10.1996C85.7725 10.5196 85.6555 10.8828 85.6555 11.2891C85.6432 11.6276 85.714 11.9231 85.8679 12.1754C86.0279 12.4278 86.2464 12.6463 86.5234 12.831C86.8004 13.0095 87.1205 13.1664 87.4837 13.3018C87.8468 13.4311 88.2346 13.5419 88.647 13.6342L90.3459 14.0405C91.1707 14.2251 91.9278 14.4714 92.6172 14.7791C93.3066 15.0869 93.9036 15.4654 94.4084 15.9148C94.9131 16.3641 95.304 16.8935 95.581 17.5028C95.8641 18.1122 96.0088 18.8108 96.0149 19.5987C96.0088 20.7559 95.7133 21.7592 95.1286 22.6087C94.55 23.4519 93.7128 24.1075 92.6172 24.5753C91.5277 25.0369 90.2135 25.2678 88.6747 25.2678C87.1482 25.2678 85.8187 25.0339 84.6861 24.5661C83.5597 24.0982 82.6795 23.4058 82.0455 22.4886C81.4176 21.5653 81.0883 20.4235 81.0575 19.0632H84.9261C84.9692 19.6972 85.1508 20.2266 85.4709 20.6513C85.7971 21.0698 86.2311 21.3868 86.7727 21.6023C87.3205 21.8116 87.9392 21.9162 88.6286 21.9162C89.3056 21.9162 89.8935 21.8177 90.392 21.6207C90.8968 21.4238 91.2876 21.1499 91.5646 20.799C91.8416 20.4482 91.9801 20.045 91.9801 19.5895C91.9801 19.1648 91.8539 18.8078 91.6016 18.5185C91.3554 18.2292 90.9922 17.983 90.5121 17.7798C90.0381 17.5767 89.4564 17.392 88.767 17.2259L86.7081 16.7088C85.1139 16.321 83.8551 15.7147 82.9318 14.8899C82.0085 14.0651 81.55 12.9541 81.5561 11.5568C81.55 10.4119 81.8546 9.41169 82.4702 8.55611C83.0919 7.70052 83.9444 7.03267 85.0277 6.55256C86.111 6.07244 87.3421 5.83239 88.7209 5.83239C90.1243 5.83239 91.3492 6.07244 92.3956 6.55256C93.4482 7.03267 94.2668 7.70052 94.8516 8.55611C95.4363 9.41169 95.7379 10.4027 95.7564 11.5291H91.9247ZM105.038 25.277C103.585 25.277 102.336 24.9692 101.289 24.3537C100.249 23.732 99.4488 22.8703 98.8887 21.7685C98.3347 20.6667 98.0577 19.3987 98.0577 17.9645C98.0577 16.5118 98.3378 15.2377 98.8979 14.142C99.4642 13.0402 100.267 12.1816 101.308 11.5661C102.348 10.9444 103.585 10.6335 105.019 10.6335C106.257 10.6335 107.34 10.8582 108.269 11.3075C109.199 11.7569 109.934 12.3878 110.476 13.2003C111.018 14.0128 111.316 14.9669 111.372 16.0625H107.66C107.555 15.3546 107.278 14.7853 106.829 14.3544C106.386 13.9174 105.804 13.6989 105.084 13.6989C104.475 13.6989 103.942 13.8651 103.487 14.1974C103.037 14.5237 102.686 15.0007 102.434 15.6286C102.182 16.2564 102.056 17.0166 102.056 17.9091C102.056 18.8139 102.179 19.5833 102.425 20.2173C102.677 20.8513 103.031 21.3345 103.487 21.6669C103.942 21.9993 104.475 22.1655 105.084 22.1655C105.533 22.1655 105.936 22.0732 106.294 21.8885C106.657 21.7038 106.955 21.4361 107.189 21.0852C107.429 20.7282 107.586 20.3004 107.66 19.8018H111.372C111.31 20.8852 111.015 21.8393 110.485 22.6641C109.962 23.4827 109.239 24.1229 108.316 24.5845C107.392 25.0462 106.3 25.277 105.038 25.277ZM117.934 25.2678C117.029 25.2678 116.223 25.1108 115.515 24.7969C114.807 24.4768 114.247 24.0059 113.835 23.3842C113.428 22.7564 113.225 21.9747 113.225 21.0391C113.225 20.2512 113.37 19.5895 113.659 19.054C113.948 18.5185 114.342 18.0876 114.841 17.7614C115.339 17.4351 115.906 17.1889 116.54 17.0227C117.18 16.8565 117.851 16.7396 118.553 16.6719C119.377 16.5857 120.042 16.5057 120.547 16.4318C121.052 16.3518 121.418 16.2348 121.646 16.081C121.873 15.9271 121.987 15.6993 121.987 15.3977V15.3423C121.987 14.7576 121.803 14.3052 121.433 13.9851C121.07 13.665 120.553 13.505 119.882 13.505C119.174 13.505 118.611 13.6619 118.192 13.9759C117.774 14.2836 117.497 14.6714 117.362 15.1392L113.724 14.8438C113.908 13.982 114.272 13.2372 114.813 12.6094C115.355 11.9754 116.054 11.4891 116.909 11.1506C117.771 10.8059 118.768 10.6335 119.901 10.6335C120.688 10.6335 121.442 10.7259 122.163 10.9105C122.889 11.0952 123.532 11.3814 124.092 11.7692C124.659 12.157 125.105 12.6555 125.431 13.2649C125.757 13.8681 125.92 14.5914 125.92 15.4347V25H122.19V23.0334H122.08C121.852 23.4766 121.547 23.8674 121.165 24.206C120.784 24.5384 120.325 24.8 119.79 24.9908C119.254 25.1754 118.636 25.2678 117.934 25.2678ZM119.06 22.5533C119.639 22.5533 120.15 22.4394 120.593 22.2116C121.036 21.9777 121.384 21.6638 121.636 21.2699C121.889 20.8759 122.015 20.4297 122.015 19.9311V18.4261C121.892 18.5062 121.723 18.58 121.507 18.6477C121.298 18.7093 121.061 18.7678 120.796 18.8232C120.531 18.8724 120.267 18.9186 120.002 18.9616C119.737 18.9986 119.497 19.0324 119.282 19.0632C118.82 19.1309 118.417 19.2386 118.072 19.3864C117.728 19.5341 117.46 19.7341 117.269 19.9865C117.078 20.2327 116.983 20.5405 116.983 20.9098C116.983 21.4453 117.177 21.8546 117.565 22.1378C117.959 22.4148 118.457 22.5533 119.06 22.5533ZM132.905 16.8011V25H128.972V10.8182H132.721V13.3203H132.887C133.201 12.4955 133.727 11.843 134.466 11.3629C135.204 10.8767 136.1 10.6335 137.152 10.6335C138.137 10.6335 138.996 10.849 139.728 11.2798C140.461 11.7107 141.03 12.3262 141.436 13.1264C141.843 13.9205 142.046 14.8684 142.046 15.9702V25H138.113V16.6719C138.119 15.804 137.897 15.1269 137.448 14.6406C136.998 14.1482 136.38 13.902 135.592 13.902C135.063 13.902 134.595 14.0159 134.189 14.2436C133.788 14.4714 133.475 14.8037 133.247 15.2408C133.025 15.6716 132.911 16.1918 132.905 16.8011Z" fill="#1E1E2F"/>
</svg>
