<svg width="20" height="20" viewBox="0 0 20 20" fill="none" xmlns="http://www.w3.org/2000/svg">
<path d="M19.4641 9.21146L15.4257 12.6977L16.7077 18.0757C16.7829 18.3761 16.769 18.6931 16.6677 18.9852C16.5664 19.2774 16.3825 19.5309 16.1399 19.7128C15.9056 19.8901 15.6251 19.99 15.3351 19.9993C15.0451 20.0086 14.7592 19.9269 14.5148 19.7649L10.0119 16.806C9.9993 16.7988 9.99372 16.8017 9.98814 16.806L5.80327 19.5558C5.53362 19.7338 5.21857 19.8234 4.89911 19.8131C4.57966 19.8028 4.27059 19.693 4.01215 19.4979C3.74446 19.2972 3.54145 19.0172 3.42969 18.6948C3.31794 18.3723 3.30264 18.0224 3.38581 17.6908L4.59245 12.7679L0.535912 9.21146C0.306125 9.01285 0.139317 8.74709 0.0572106 8.44876C-0.0248957 8.15044 -0.0184962 7.83338 0.0755758 7.53889C0.164749 7.24851 0.336234 6.99275 0.567657 6.80498C0.79908 6.61722 1.07969 6.50616 1.37289 6.48629L6.64583 6.13108L8.64201 0.964335C8.7482 0.680739 8.93443 0.436978 9.17634 0.264928C9.41825 0.0928766 9.70459 0.000543015 9.99791 0H9.9993C10.2931 5.19111e-05 10.58 0.0921505 10.8224 0.264227C11.0649 0.436304 11.2516 0.680332 11.358 0.964335L13.3249 6.10143L18.6271 6.48629C18.9203 6.50616 19.2009 6.61722 19.4323 6.80498C19.6638 6.99275 19.8353 7.24851 19.9244 7.53889C20.0185 7.83338 20.0249 8.15044 19.9428 8.44876C19.8607 8.74708 19.6939 9.01285 19.4641 9.21146Z" fill="#F1C40F"/>
</svg>
