<svg width="20" height="30" viewBox="0 0 20 30" fill="none" xmlns="http://www.w3.org/2000/svg">
<path d="M1.87401e-06 3.33333C1.87401e-06 1.49238 1.83287 0 4.09383 0C6.35486 0 8.18766 1.49238 8.18766 3.33333C8.18766 4.56713 7.36439 5.64438 6.14075 6.22073V18.3993H9.8078C12.0688 18.3993 13.9016 16.9068 13.9016 15.066V12.973C12.6546 12.4018 11.8123 11.3139 11.8123 10.0659C11.8123 8.22497 13.6451 6.73258 15.9062 6.73258C18.167 6.73258 20 8.22497 20 10.0659C20 11.2854 19.1956 12.3518 17.9955 12.933V15.066C17.9955 18.7478 14.3296 21.7327 9.8078 21.7327H6.14075V23.7793C7.36439 24.3557 8.18766 25.4328 8.18766 26.6667C8.18766 28.5077 6.35486 30 4.09383 30C1.83287 30 1.87401e-06 28.5077 1.87401e-06 26.6667C1.87401e-06 25.4328 0.823271 24.3557 2.04692 23.7793V6.22073C0.823271 5.64438 1.87401e-06 4.56713 1.87401e-06 3.33333Z" fill="#2ECC71"/>
</svg>
